<svg width="30" height="30" viewBox="0 0 30 30" fill="none" xmlns="http://www.w3.org/2000/svg">
<path d="M15 25.5469C14.7406 25.5469 14.5312 25.3375 14.5312 25.0781V16.875C14.5312 16.6156 14.7406 16.4062 15 16.4062C15.2594 16.4062 15.4688 16.6156 15.4688 16.875V25.0781C15.4688 25.3375 15.2594 25.5469 15 25.5469Z" fill="#FF751F"/>
<path d="M16.4142 27.1016C16.2517 27.1016 16.0938 27.0172 16.0079 26.8672C15.8782 26.6438 15.9548 26.3563 16.1798 26.2266L24.1329 21.6344C24.3579 21.5047 24.6438 21.5813 24.7735 21.8063C24.9032 22.0297 24.8267 22.3172 24.6017 22.4469L16.6485 27.0391C16.5751 27.0812 16.4938 27.1016 16.4142 27.1016Z" fill="white"/>
<path d="M13.5814 27.0981C13.5017 27.0981 13.422 27.0778 13.347 27.0356L5.40015 22.4465C5.17671 22.3168 5.09859 22.0309 5.22827 21.8059C5.35796 21.5825 5.6439 21.5043 5.8689 21.634L13.8158 26.2231C14.0392 26.3528 14.1173 26.6387 13.9876 26.8637C13.9001 27.0137 13.7439 27.0981 13.5814 27.0981Z" fill="white"/>
<path d="M4.21875 20.0879C3.95938 20.0879 3.75 19.8785 3.75 19.6191V10.4004C3.75 10.141 3.95938 9.93164 4.21875 9.93164C4.47812 9.93164 4.6875 10.141 4.6875 10.4004V19.6191C4.6875 19.8785 4.47812 20.0879 4.21875 20.0879Z" fill="white"/>
<path d="M5.63144 8.4293C5.46894 8.4293 5.31113 8.34492 5.2252 8.19492C5.09551 7.97149 5.17207 7.68399 5.39707 7.5543L13.3549 2.96055C13.5799 2.83086 13.8658 2.90742 13.9955 3.13242C14.1252 3.35586 14.0486 3.64336 13.8236 3.77305L5.86582 8.3668C5.79238 8.40898 5.71113 8.4293 5.63144 8.4293V8.4293Z" fill="white"/>
<path d="M24.5124 8.51138C24.4328 8.51138 24.3531 8.49107 24.2781 8.44888L16.1765 3.77075C15.9531 3.64107 15.875 3.35513 16.0046 3.13013C16.1343 2.90669 16.4203 2.82857 16.6453 2.95825L24.7468 7.63638C24.9703 7.76606 25.0484 8.052 24.9187 8.277C24.8312 8.427 24.6749 8.51138 24.5124 8.51138V8.51138Z" fill="white"/>
<path d="M25.7812 20.0703C25.5219 20.0703 25.3125 19.8609 25.3125 19.6016V10.4062C25.3125 10.1469 25.5219 9.9375 25.7812 9.9375C26.0406 9.9375 26.25 10.1469 26.25 10.4062V19.6016C26.25 19.8609 26.0406 20.0703 25.7812 20.0703Z" fill="white"/>
<path d="M16.6173 14.5355C16.4548 14.5355 16.297 14.4512 16.211 14.3012C16.0813 14.0777 16.1579 13.7902 16.3829 13.6605L23.4954 9.5543C23.7188 9.42461 24.0064 9.50117 24.136 9.72617C24.2657 9.95117 24.1892 10.2371 23.9642 10.3668L16.8517 14.473C16.7782 14.5152 16.697 14.5355 16.6173 14.5355V14.5355Z" fill="#FF751F"/>
<path d="M13.367 14.527C13.2874 14.527 13.2077 14.5067 13.1327 14.4645L6.04517 10.3723C5.82173 10.2426 5.74361 9.95669 5.87329 9.73169C6.00298 9.50825 6.28892 9.43013 6.51392 9.55982L13.6014 13.652C13.8249 13.7817 13.903 14.0676 13.7733 14.2926C13.6858 14.4426 13.5295 14.527 13.367 14.527Z" fill="#FF751F"/>
</svg>
