<svg width="30" height="30" viewBox="0 0 30 30" fill="none" xmlns="http://www.w3.org/2000/svg">
<path d="M24.8438 16.875H17.3438C17.0844 16.875 16.875 17.0844 16.875 17.3438V24.8438C16.875 25.1031 17.0844 25.3125 17.3438 25.3125H24.8438C25.1031 25.3125 25.3125 25.1031 25.3125 24.8438V17.3438C25.3125 17.0844 25.1031 16.875 24.8438 16.875ZM24.375 24.375H17.8125V17.8125H24.375V24.375Z" fill="white"/>
<path d="M12.6562 16.875H5.15625C4.89688 16.875 4.6875 17.0844 4.6875 17.3438V24.8438C4.6875 25.1031 4.89688 25.3125 5.15625 25.3125H12.6562C12.9156 25.3125 13.125 25.1031 13.125 24.8438V17.3438C13.125 17.0844 12.9156 16.875 12.6562 16.875ZM12.1875 24.375H5.625V17.8125H12.1875V24.375Z" fill="white"/>
<path d="M12.6562 4.6875H5.15625C4.89688 4.6875 4.6875 4.89688 4.6875 5.15625V12.6562C4.6875 12.9156 4.89688 13.125 5.15625 13.125H12.6562C12.9156 13.125 13.125 12.9156 13.125 12.6562V5.15625C13.125 4.89688 12.9156 4.6875 12.6562 4.6875ZM12.1875 12.1875H5.625V5.625H12.1875V12.1875Z" fill="white"/>
<path d="M26.7281 8.57499L21.425 3.27187C21.2422 3.08906 20.9453 3.08906 20.7625 3.27187L15.4594 8.57499C15.2766 8.7578 15.2766 9.05471 15.4594 9.23753L20.7625 14.5406C20.8547 14.6328 20.9734 14.6781 21.0938 14.6781C21.2141 14.6781 21.3344 14.6328 21.425 14.5406L26.7281 9.23753C26.911 9.05471 26.911 8.7578 26.7281 8.57499ZM21.0938 13.5469L16.4531 8.90626L21.0938 4.26564L25.7344 8.90626L21.0938 13.5469Z" fill="#FF751F"/>
</svg>
