<svg width="30" height="30" viewBox="0 0 30 30" fill="none" xmlns="http://www.w3.org/2000/svg">
    <path d="M15 10.313h2.405c.21.807.942 1.406 1.814 1.406 1.034 0 1.875-.84 1.875-1.875 0-1.035-.84-1.875-1.875-1.875-.872 0-1.605.598-1.814 1.406H15A5.631 5.631 0 0 0 9.375 15 5.631 5.631 0 0 0 15 20.625h2.405c.21.808.942 1.406 1.814 1.406 1.034 0 1.875-.84 1.875-1.875 0-1.034-.84-1.875-1.875-1.875-.872 0-1.605.599-1.814 1.407H15A4.693 4.693 0 0 1 10.313 15 4.693 4.693 0 0 1 15 10.312zm4.219-1.407a.938.938 0 1 1-.002 1.877.938.938 0 0 1 .002-1.877zm0 10.313a.938.938 0 1 1-.002 1.876.938.938 0 0 1 .002-1.876z" fill="#fff"/>
    <path d="M23.438 13.125c-.872 0-1.605.598-1.814 1.406h-4.811a1.877 1.877 0 0 0-1.814-1.406c-1.035 0-1.875.84-1.875 1.875 0 1.034.84 1.875 1.875 1.875.871 0 1.604-.598 1.814-1.406h4.81c.21.808.943 1.406 1.815 1.406 1.034 0 1.875-.84 1.875-1.875 0-1.034-.84-1.875-1.875-1.875zM15 15.938a.938.938 0 1 1 .002-1.877.938.938 0 0 1-.002 1.877zm8.438 0a.938.938 0 1 1 .001-1.877.938.938 0 0 1-.001 1.877z" fill="#FF751F"/>
    <path d="M23.438 22.969c-.872 0-1.605.598-1.814 1.406H15c-.43 0-.867-.133-1.331-.272-.232-.07-.47-.142-.71-.197a.469.469 0 0 0-.42.111l-2.13 1.95c-.996-.414-1.873-.919-2.612-1.503l.625-2.825a.47.47 0 0 0-.114-.42c-.908-.977-1.614-2.2-2.045-3.54a.468.468 0 0 0-.305-.302l-2.75-.87A12.593 12.593 0 0 1 3.11 15c0-.555.016-1.034.084-1.505l2.761-.872a.47.47 0 0 0 .305-.301c.44-1.352 1.148-2.575 2.045-3.54a.47.47 0 0 0 .114-.421l-.623-2.819a11.985 11.985 0 0 1 2.61-1.51l2.13 1.95a.467.467 0 0 0 .42.11c.24-.055.479-.126.71-.197.464-.14.902-.272 1.332-.272h6.623c.21.808.942 1.407 1.814 1.407 1.034 0 1.875-.841 1.875-1.875 0-1.035-.84-1.875-1.875-1.875-.872 0-1.605.598-1.814 1.406h-6.623c-.57 0-1.094.16-1.602.312-.142.043-.278.085-.413.12l-2.16-1.977a.469.469 0 0 0-.488-.091 12.806 12.806 0 0 0-3.355 1.94.47.47 0 0 0-.162.466l.634 2.87A10.572 10.572 0 0 0 5.447 11.8l-2.806.887a.468.468 0 0 0-.32.357c-.123.631-.148 1.239-.148 1.954 0 .605.049 1.254.146 1.932a.47.47 0 0 0 .323.38l2.806.887a10.432 10.432 0 0 0 2.007 3.473l-.635 2.87a.47.47 0 0 0 .155.46c.925.781 2.056 1.436 3.363 1.947a.468.468 0 0 0 .487-.09l2.161-1.979c.133.036.27.078.412.12.508.153 1.035.313 1.602.313h6.623c.21.808.943 1.406 1.814 1.406 1.035 0 1.875-.84 1.875-1.875 0-1.034-.84-1.875-1.875-1.875v.002zm0-18.75a.938.938 0 1 1-.002 1.876.938.938 0 0 1 .002-1.876zm0 21.562a.938.938 0 1 1 .001-1.876.938.938 0 0 1-.002 1.876z" fill="#fff"/>
</svg>
