<svg width="30" height="30" viewBox="0 0 30 30" fill="none" xmlns="http://www.w3.org/2000/svg">
<path d="M24.6094 3.74961H5.39062C4.48594 3.74961 3.75 4.48555 3.75 5.39024V10.5465C3.75 11.4512 4.48594 12.1871 5.39062 12.1871H11.7188C11.9781 12.1871 12.1875 11.9777 12.1875 11.7184C12.1875 11.459 11.9781 11.2496 11.7188 11.2496H5.39062C5.00312 11.2496 4.6875 10.934 4.6875 10.5465V5.39024C4.6875 5.00274 5.00312 4.68711 5.39062 4.68711H24.6094C24.9969 4.68711 25.3125 5.00274 25.3125 5.39024V10.5465C25.3125 10.934 24.9969 11.2496 24.6094 11.2496H16.4062C16.1469 11.2496 15.9375 11.459 15.9375 11.7184C15.9375 11.9777 16.1469 12.1871 16.4062 12.1871H21.5422C21.4547 12.3121 21.3594 12.4309 21.2484 12.5402L18.3015 15.4871C18.1187 15.6699 18.1187 15.9668 18.3015 16.1496C18.3937 16.2418 18.5125 16.2871 18.6328 16.2871C18.7531 16.2871 18.8734 16.2418 18.964 16.1496L21.9109 13.2027C22.2094 12.9043 22.4453 12.5621 22.6219 12.1855H24.6094C25.5141 12.1855 26.25 11.4496 26.25 10.5449V5.38867C26.25 4.48398 25.5141 3.74805 24.6094 3.74805V3.74961Z" fill="white"/>
<path d="M24.6093 17.8117H18.2812C18.0218 17.8117 17.8124 18.0211 17.8124 18.2805C17.8124 18.5399 18.0218 18.7492 18.2812 18.7492H24.6093C24.9968 18.7492 25.3124 19.0649 25.3124 19.4524V24.6086C25.3124 24.9961 24.9968 25.3117 24.6093 25.3117H5.39053C5.00303 25.3117 4.6874 24.9961 4.6874 24.6086V19.4524C4.6874 19.0649 5.00303 18.7492 5.39053 18.7492H13.5937C13.853 18.7492 14.0624 18.5399 14.0624 18.2805C14.0624 18.0211 13.853 17.8117 13.5937 17.8117H8.4577C8.5452 17.6867 8.64209 17.568 8.75146 17.4586L11.7327 14.4773C11.9155 14.2945 11.9155 13.9977 11.7327 13.8148C11.5499 13.632 11.253 13.632 11.0702 13.8148L8.08897 16.7961C7.79053 17.0945 7.55459 17.4367 7.37959 17.8133H5.39209C4.4874 17.8133 3.75146 18.5492 3.75146 19.4539V24.6102C3.75146 25.5149 4.4874 26.2508 5.39209 26.2508H24.6108C25.5155 26.2508 26.2515 25.5149 26.2515 24.6102V19.4539C26.2515 18.5492 25.5155 17.8133 24.6108 17.8133L24.6093 17.8117Z" fill="white"/>
<path d="M12.5765 21.2139C12.0406 21.7483 11.314 22.0498 10.5875 22.0389C9.8953 22.028 9.2453 21.7389 8.75937 21.2233C8.49999 20.9483 8.16718 20.4201 8.05937 20.0155C7.99374 19.7655 7.73591 19.6155 7.48747 19.6811C7.23747 19.7467 7.08749 20.003 7.15311 20.2545C7.30467 20.8311 7.73278 21.5014 8.07653 21.867C8.73747 22.5686 9.62497 22.9623 10.5734 22.9764C10.5906 22.9764 10.6078 22.9764 10.625 22.9764C11.5875 22.9764 12.5375 22.578 13.239 21.8764L16.2859 18.8295C17.675 17.4405 17.675 15.1639 16.289 13.7514C16.0359 13.4936 15.5359 13.1233 15.1062 12.942C14.8672 12.842 14.5922 12.953 14.4922 13.192C14.3922 13.4311 14.5031 13.7061 14.7421 13.8061C15.0343 13.9295 15.4328 14.217 15.6203 14.4092C16.6312 15.4373 16.6312 17.1576 15.6234 18.167L12.5765 21.2139V21.2139Z" fill="#FF751F"/>
<path d="M21.2126 8.7506L21.2485 8.78654C21.5579 9.09591 21.7876 9.48028 21.9126 9.89591C21.9876 10.1443 22.2485 10.285 22.497 10.21C22.7454 10.135 22.886 9.87404 22.811 9.6256C22.6407 9.06154 22.3298 8.54279 21.911 8.12404L21.8751 8.08809C20.4751 6.68809 18.1954 6.68809 16.7954 8.08809L13.7126 11.1709C12.3126 12.5709 12.3126 14.8506 13.7126 16.2506L13.7485 16.2865C14.0532 16.5912 14.4048 16.835 14.7923 17.0131C14.8563 17.0428 14.922 17.0553 14.9876 17.0553C15.1657 17.0553 15.336 16.9537 15.4141 16.7818C15.522 16.5459 15.4188 16.2678 15.1829 16.16C14.8954 16.0287 14.636 15.8475 14.411 15.6225L14.3751 15.5865C13.3407 14.5522 13.3407 12.8678 14.3751 11.8318L17.4579 8.74904C18.4938 7.71466 20.1767 7.71466 21.2126 8.74904V8.7506Z" fill="#FF751F"/>
</svg>
