<svg width="30" height="30" viewBox="0 0 30 30" fill="none" xmlns="http://www.w3.org/2000/svg">
<path d="M8.67188 13.3895L14.7656 16.9082C14.8375 16.9504 14.9188 16.9707 15 16.9707C15.0812 16.9707 15.1625 16.9504 15.2344 16.9082L21.3281 13.3895C21.4734 13.3051 21.5625 13.1504 21.5625 12.9832V5.94728C21.5625 5.7801 21.4734 5.62539 21.3281 5.54102L15.2344 2.02227C15.0891 1.93789 14.9109 1.93789 14.7656 2.02227L8.67188 5.54102C8.52656 5.62539 8.4375 5.7801 8.4375 5.94728V12.9832C8.4375 13.1504 8.52656 13.3051 8.67188 13.3895ZM9.375 6.89726L14.5312 9.87383V15.6894L9.375 12.7129V6.89726ZM15.4688 15.6894V9.87383L20.625 6.89726V12.7129L15.4688 15.6894ZM15 2.96915L20.2766 6.01446L15 9.05977L9.72344 6.01446L15 2.96915Z" fill="#FF751F"/>
<path d="M25.6377 18.3303C25.5564 18.1272 25.3471 18.0069 25.1299 18.0428C25.0814 18.0506 23.9752 18.2288 22.9095 18.5335C22.8674 18.5054 22.8158 18.4678 22.7705 18.435C22.2861 18.0897 21.3846 17.4444 19.3705 17.1788C18.1814 17.021 17.4392 17.2991 16.7221 17.5663C16.0377 17.8225 15.3908 18.0632 14.2705 17.9694C12.7564 17.8428 11.3408 17.86 10.6767 19.4491C10.5642 19.7178 10.5189 19.9897 10.5408 20.2538C9.27049 19.66 7.90017 19.0288 7.35486 18.8288C6.5658 18.5397 5.09861 18.0022 4.17518 19.0553C3.81893 19.4616 3.66892 19.9709 3.75174 20.4913C3.86736 21.21 4.41892 21.9084 5.2658 22.4069C6.80174 23.31 11.2314 25.6772 13.0189 26.4163C14.5236 27.0382 16.1705 27.2491 19.7158 26.3788C22.8002 25.621 23.433 27.0413 23.4549 27.0944C23.5017 27.2209 23.6017 27.3209 23.7267 27.3678C23.7799 27.3881 23.8377 27.3991 23.8939 27.3991C23.9689 27.3991 24.0439 27.3803 24.1127 27.3444C25.6392 26.5382 26.0846 23.171 26.1846 22.1585C26.3783 20.1991 25.6658 18.4022 25.6345 18.3272L25.6377 18.3303ZM25.2549 22.0694C25.0408 24.2413 24.5142 25.6397 24.0017 26.2413C23.6142 25.7928 22.8299 25.2225 21.3502 25.2225C20.8236 25.2225 20.2096 25.2944 19.4955 25.4694C16.1814 26.2819 14.7439 26.1147 13.3799 25.5507C11.6892 24.8522 7.27986 22.5038 5.74392 21.6006C5.14705 21.2491 4.75017 20.7803 4.67986 20.3444C4.6408 20.0991 4.70798 19.8741 4.88142 19.6756C5.24705 19.26 5.82986 19.2694 7.03455 19.71C7.68143 19.9459 9.65174 20.8709 11.0908 21.5459C11.3377 21.6616 11.5674 21.7694 11.7705 21.8647C12.0799 22.0444 12.3908 22.1741 12.6299 22.2585C13.972 22.8303 15.2236 22.8585 16.3486 22.3413C16.5845 22.2335 16.6877 21.9553 16.5783 21.7194C16.4705 21.4835 16.1908 21.3819 15.9564 21.4897C15.0658 21.8991 14.0955 21.8663 12.9877 21.3928C12.9861 21.3928 12.983 21.3913 12.9799 21.3897C12.8486 21.3334 12.5627 21.2007 12.197 21.0304C11.8627 20.8304 11.6267 20.6038 11.5283 20.3819C11.4486 20.2038 11.4533 20.0225 11.5424 19.8116C11.8955 18.9663 12.4892 18.7616 14.1924 18.9053C15.5236 19.0178 16.3345 18.7132 17.0502 18.446C17.7158 18.1975 18.2908 17.9819 19.247 18.1084C21.0283 18.3444 21.8064 18.9007 22.2252 19.1991C22.4877 19.3866 22.7345 19.5616 23.0549 19.4679C23.7299 19.2679 24.458 19.1179 24.8908 19.0366C25.072 19.6163 25.3783 20.8225 25.2549 22.0694V22.0694Z" fill="white"/>
</svg>
