<svg width="23" height="30" viewBox="0 0 23 30" fill="none" xmlns="http://www.w3.org/2000/svg">
<path d="M21.6793 17.2123C21.6493 17.1589 21.6193 17.1056 21.5909 17.0539C21.4559 16.7989 20.8493 16.1339 19.2093 14.3856C18.8259 13.9772 18.4726 13.5989 18.1993 13.3039V6.49892C18.1993 6.22225 17.9759 5.99892 17.6993 5.99892H8.68592C8.68926 5.98392 8.6926 5.96891 8.69593 5.95391C9.00427 4.61225 8.21593 3.61724 7.83593 3.13891C7.7926 3.08391 7.73927 3.01725 7.7176 2.98558C7.6726 2.85225 7.65425 2.56391 7.84759 2.24391C7.96259 2.05391 7.93759 1.81059 7.78592 1.64725C7.72592 1.58225 6.28426 0.0739159 3.08092 0.893916C3.06426 0.898916 3.0476 0.90392 3.03094 0.90892C0.755936 1.74892 0.374265 3.04392 0.339265 3.18892C0.312599 3.29725 0.324256 3.41558 0.370922 3.51892C0.374256 3.52558 0.63592 4.12392 0.639253 5.31225C0.642586 6.25392 0.107599 10.4106 0.0275995 11.0056C-0.0957338 11.9106 0.220919 12.4656 0.450919 12.8706C0.482586 12.9256 0.512592 12.9806 0.540926 13.0339C0.667592 13.2722 1.14094 13.7356 2.36427 14.9006C3.0176 15.5239 3.7476 16.2206 4.19927 16.6972V23.5006C4.19927 23.7773 4.4226 24.0006 4.69927 24.0006H13.6209C13.3526 25.2839 14.1059 26.2356 14.4709 26.6956C14.5193 26.7556 14.5593 26.8039 14.5843 26.8422C14.6276 26.9706 14.6443 27.2439 14.4576 27.5522C14.3426 27.7422 14.3676 27.9856 14.5193 28.1489C14.5659 28.1989 15.4476 29.1223 17.3459 29.1223C17.8593 29.1223 18.4459 29.0556 19.1109 28.8839C19.1276 28.8789 19.1443 28.8739 19.1593 28.8689C21.3793 28.0489 21.7526 26.7822 21.7876 26.6406C21.8143 26.5322 21.8026 26.4139 21.7559 26.3123C21.7526 26.3056 21.4993 25.7256 21.4959 24.5722C21.4926 23.6622 22.0126 19.6139 22.0909 19.0356C22.2109 18.1489 21.9026 17.6073 21.6776 17.2123H21.6793ZM3.05427 14.1772C2.3776 13.5322 1.5376 12.7306 1.42427 12.5639C1.39093 12.5023 1.35593 12.4406 1.31927 12.3756C1.12427 12.0339 0.940923 11.7106 1.01759 11.1406C1.02426 11.0939 1.64259 6.40725 1.63925 5.31058C1.63592 4.29725 1.46927 3.63725 1.3626 3.31891C1.5076 3.04391 1.98426 2.36892 3.35426 1.85725C5.25759 1.37559 6.34593 1.84058 6.80093 2.13225C6.63093 2.62058 6.67426 3.07725 6.79593 3.38058C6.84593 3.50225 6.9276 3.60724 7.0526 3.76391C7.3776 4.17391 7.9226 4.86059 7.72094 5.73225C7.59927 6.26225 7.22759 7.87392 7.95092 9.69392C8.28592 10.5339 8.64926 11.1489 8.91426 11.5989C9.39092 12.4056 9.3776 12.4706 9.2376 12.6439C9.20427 12.6856 9.10259 12.8122 8.82759 12.8222C8.37759 12.8406 7.7626 12.5339 7.3426 12.0823C7.02093 11.7373 6.71092 11.0922 6.41092 10.4672C6.01925 9.65391 5.65093 8.88725 5.15093 8.48725C4.10093 7.64892 3.18426 7.64059 3.08426 7.63725C2.81093 7.64059 2.59427 7.86392 2.59427 8.13725C2.59427 8.41059 2.8176 8.63392 3.09093 8.63725C3.1076 8.63725 3.34592 8.64391 3.70092 8.78224C3.35592 9.10558 2.88426 9.61392 2.58426 10.2123C2.46093 10.4589 2.56092 10.7589 2.80759 10.8839C2.87925 10.9206 2.95594 10.9373 3.03094 10.9373C3.21427 10.9373 3.39093 10.8356 3.47926 10.6606C3.66426 10.2889 3.9476 9.95226 4.19927 9.69559V15.2789C3.8426 14.9306 3.44594 14.5522 3.05427 14.1789V14.1772ZM5.19927 10.2672C5.30594 10.4756 5.41094 10.6906 5.51094 10.8989C5.84427 11.5906 6.1876 12.3039 6.61093 12.7606C7.23427 13.4306 8.11427 13.8523 8.86427 13.8189C9.34427 13.8006 9.74259 13.6106 10.0176 13.2672C10.6193 12.5172 10.2276 11.8539 9.77426 11.0873C9.51093 10.6439 9.18426 10.0906 8.87926 9.32224C8.5376 8.46224 8.47927 7.66725 8.52927 6.99892H17.1976V20.0089C17.0459 19.7339 16.8959 19.4239 16.7543 19.1289C16.4309 18.4556 16.0959 17.7589 15.6809 17.3139C15.0726 16.6589 14.2059 16.2556 13.4776 16.2806C13.0076 16.2972 12.6159 16.4856 12.3443 16.8222C11.7526 17.5606 12.1359 18.2073 12.5793 18.9589C12.8343 19.3906 13.1526 19.9289 13.4493 20.6756C13.7926 21.5406 13.8393 22.3356 13.7826 22.9989H5.1976V10.2656L5.19927 10.2672ZM21.1009 18.9006C21.0943 18.9456 20.4943 23.4956 20.4959 24.5756C20.4993 25.5572 20.6593 26.1989 20.7643 26.5122C20.6226 26.7789 20.1576 27.4289 18.8376 27.9223C17.0026 28.3856 15.9493 27.9439 15.5043 27.6622C15.6676 27.1872 15.6226 26.7439 15.5043 26.4489C15.4559 26.3272 15.3709 26.2206 15.2526 26.0722C14.9376 25.6756 14.4109 25.0106 14.6043 24.1689C14.7226 23.6523 15.0843 22.0822 14.3793 20.3072C14.0543 19.4889 13.6993 18.8889 13.4409 18.4522C12.9826 17.6756 12.9943 17.6139 13.1243 17.4506C13.1559 17.4106 13.2509 17.2922 13.5126 17.2822C13.9476 17.2739 14.5409 17.5606 14.9476 17.9973C15.2576 18.3323 15.5593 18.9589 15.8509 19.5639C16.2326 20.3556 16.5926 21.1039 17.0809 21.4956C18.1059 22.3139 19.0076 22.3272 19.1009 22.3256C19.3743 22.3222 19.5909 22.0989 19.5909 21.8256C19.5909 21.5522 19.3676 21.3289 19.0943 21.3256C19.0793 21.3256 18.8559 21.3173 18.5259 21.1923C18.8609 20.8756 19.3109 20.3873 19.5993 19.8123C19.7226 19.5656 19.6226 19.2656 19.3759 19.1422C19.1293 19.0189 18.8293 19.1189 18.7059 19.3656C18.5709 19.6339 18.3843 19.8839 18.1976 20.0972V14.7723C18.2893 14.8706 18.3826 14.9689 18.4776 15.0706C19.3076 15.9556 20.5626 17.2923 20.7059 17.5239C20.7376 17.5839 20.7726 17.6439 20.8076 17.7073C20.9959 18.0373 21.1743 18.3506 21.0993 18.9006H21.1009Z" fill="white"/>
<path d="M8.69922 6.5H17.5992C17.6544 6.5 17.6992 6.54477 17.6992 6.6V19.5" stroke="#FF751F"/>
<path d="M4.69922 10V23.4C4.69922 23.4552 4.74399 23.5 4.79922 23.5H13.6992" stroke="#FF751F"/>
</svg>
