<svg width="30" height="30" viewBox="0 0 30 30" fill="none" xmlns="http://www.w3.org/2000/svg">
<path d="M11.9531 14.0625H18.0469C18.9516 14.0625 19.6875 13.3266 19.6875 12.4219V9.14062C19.6875 8.23594 18.9516 7.5 18.0469 7.5H17.8125V5.625C17.8125 4.07344 16.5516 2.8125 15 2.8125C13.4484 2.8125 12.1875 4.07344 12.1875 5.625V7.5H11.9531C11.0484 7.5 10.3125 8.23594 10.3125 9.14062V12.4219C10.3125 13.3266 11.0484 14.0625 11.9531 14.0625ZM13.125 5.625C13.125 4.59063 13.9656 3.75 15 3.75C16.0344 3.75 16.875 4.59063 16.875 5.625V7.5H13.125V5.625ZM11.25 9.14062C11.25 8.75312 11.5656 8.4375 11.9531 8.4375H18.0469C18.4344 8.4375 18.75 8.75312 18.75 9.14062V12.4219C18.75 12.8094 18.4344 13.125 18.0469 13.125H11.9531C11.5656 13.125 11.25 12.8094 11.25 12.4219V9.14062Z" fill="#FF751F"/>
<path d="M15 11.9531C15.2594 11.9531 15.4688 11.7437 15.4688 11.4844V10.0781C15.4688 9.81875 15.2594 9.60938 15 9.60938C14.7406 9.60938 14.5312 9.81875 14.5312 10.0781V11.4844C14.5312 11.7437 14.7406 11.9531 15 11.9531Z" fill="#FF751F"/>
<path d="M10.4719 19.841C11.0922 19.2832 11.4844 18.477 11.4844 17.5801C11.4844 15.9004 10.1172 14.5332 8.4375 14.5332C6.75781 14.5332 5.39062 15.9004 5.39062 17.5801C5.39062 18.4785 5.78281 19.2832 6.40312 19.841C4.83437 20.2879 3.75 21.6863 3.75 23.4395V23.6738C3.75 24.5785 4.48594 25.3145 5.39062 25.3145H11.4844C12.3891 25.3145 13.125 24.5785 13.125 23.6738V23.4395C13.125 21.6863 12.0406 20.2894 10.4719 19.841ZM8.4375 15.4707C9.6 15.4707 10.5469 16.4176 10.5469 17.5801C10.5469 18.7426 9.6 19.6895 8.4375 19.6895C7.275 19.6895 6.32812 18.7426 6.32812 17.5801C6.32812 16.4176 7.275 15.4707 8.4375 15.4707ZM12.1875 23.6738C12.1875 24.0613 11.8719 24.377 11.4844 24.377H5.39062C5.00312 24.377 4.6875 24.0613 4.6875 23.6738V23.4395C4.6875 21.8363 5.89687 20.627 7.5 20.627H9.375C10.9781 20.627 12.1875 21.8363 12.1875 23.4395V23.6738Z" fill="white"/>
<path d="M23.5969 19.841C24.2172 19.2832 24.6094 18.477 24.6094 17.5801C24.6094 15.9004 23.2422 14.5332 21.5625 14.5332C19.8828 14.5332 18.5156 15.9004 18.5156 17.5801C18.5156 18.4785 18.9078 19.2832 19.5281 19.841C17.9594 20.2879 16.875 21.6863 16.875 23.4395V23.6738C16.875 24.5785 17.6109 25.3145 18.5156 25.3145H24.6094C25.5141 25.3145 26.25 24.5785 26.25 23.6738V23.4395C26.25 21.6863 25.1656 20.2894 23.5969 19.841ZM21.5625 15.4707C22.725 15.4707 23.6719 16.4176 23.6719 17.5801C23.6719 18.7426 22.725 19.6895 21.5625 19.6895C20.4 19.6895 19.4531 18.7426 19.4531 17.5801C19.4531 16.4176 20.4 15.4707 21.5625 15.4707ZM25.3125 23.6738C25.3125 24.0613 24.9969 24.377 24.6094 24.377H18.5156C18.1281 24.377 17.8125 24.0613 17.8125 23.6738V23.4395C17.8125 21.8363 19.0219 20.627 20.625 20.627H22.5C24.1031 20.627 25.3125 21.8363 25.3125 23.4395V23.6738Z" fill="white"/>
</svg>
