<svg width="21" height="17" viewBox="0 0 21 17" fill="none" xmlns="http://www.w3.org/2000/svg">
    <path d="M12.902 9.999c.84 0 1.52-.681 1.52-1.52m1.1 1.544c.267-.453.42-.98.42-1.545 0-.564-.153-1.092-.42-1.545l1.212-1.212a.76.76 0 0 0-1.076-1.075l-1.212 1.212a3.027 3.027 0 0 0-1.544-.42c-.564 0-1.092.153-1.545.42l-1.212-1.212a.76.76 0 1 0-1.076 1.075l1.212 1.212c-.267.453-.42.981-.42 1.545s.153 1.092.42 1.545L9.07 11.235a.76.76 0 1 0 1.075 1.075l1.213-1.212c.453.268.98.421 1.545.421.564 0 1.092-.153 1.544-.42l1.213 1.211a.76.76 0 1 0 1.075-1.075l-1.212-1.212z" stroke="#FF751F" stroke-width=".59"/>
    <path d="M4.055 5.032c0-.336-.082-.609-.184-.609s-.184.273-.184.609v6.893c0 .336.082.608.184.608s.184-.272.184-.608V5.032z" stroke="#fff" stroke-width=".737"/>
    <path d="M.369 3.984C.369 1.977 1.946.37 3.87.37h12.901c1.924 0 3.502 1.608 3.502 3.615v9.032c0 2.007-1.578 3.615-3.502 3.615H3.871c-1.925 0-3.502-1.608-3.502-3.615V3.984z" stroke="#fff" stroke-width=".737"/>
    <path d="M.369 3.984C.369 1.977 1.946.37 3.87.37h12.901c1.924 0 3.502 1.608 3.502 3.615v9.032c0 2.007-1.578 3.615-3.502 3.615H3.871c-1.925 0-3.502-1.608-3.502-3.615V3.984z" stroke="#fff" stroke-width=".737"/>
</svg>
