<svg width="31" height="24" viewBox="0 0 31 24" fill="none" xmlns="http://www.w3.org/2000/svg">
<path d="M17.536 0.68083C17.4795 0.712595 17.4231 0.744366 17.3684 0.774364C17.0984 0.917305 16.3942 1.55966 14.5431 3.29613C14.1107 3.70201 13.7101 4.07611 13.3978 4.36552H6.19253C5.89959 4.36552 5.66312 4.60199 5.66312 4.89493V14.4384C5.64724 14.4349 5.63135 14.4314 5.61547 14.4278C4.19489 14.1014 3.14136 14.9361 2.63489 15.3384C2.57666 15.3843 2.50607 15.4408 2.47254 15.4637C2.33137 15.5114 2.02607 15.5308 1.68725 15.3261C1.48608 15.2043 1.22844 15.2308 1.0555 15.3914C0.986673 15.4549 -0.610382 16.9814 0.257849 20.3731C0.263143 20.3908 0.268442 20.4084 0.273736 20.426C1.16314 22.8349 2.53431 23.239 2.68784 23.276C2.80255 23.3043 2.92784 23.2919 3.03725 23.2425C3.04431 23.239 3.67784 22.9619 4.93607 22.9584C5.93312 22.9549 10.3343 23.5213 10.9643 23.606C11.9225 23.7366 12.5101 23.4013 12.939 23.1578C12.9972 23.1243 13.0554 23.0925 13.1119 23.0625C13.3643 22.9284 13.8549 22.4272 15.0884 21.1319C15.7484 20.4402 16.486 19.6672 16.9907 19.189H24.1942C24.4872 19.189 24.7236 18.9525 24.7236 18.6596V9.21316C26.0824 9.49728 27.0901 8.69962 27.5772 8.31315C27.6407 8.26198 27.6918 8.21964 27.7324 8.19316C27.8683 8.14728 28.1577 8.12964 28.4842 8.32728C28.6854 8.44905 28.943 8.42258 29.116 8.26199C29.1689 8.21258 30.1465 7.27904 30.1465 5.26905C30.1465 4.72552 30.0759 4.10435 29.8942 3.40024C29.8889 3.38259 29.8836 3.36496 29.8783 3.34908C29.0101 0.998497 27.6689 0.603201 27.5189 0.566143C27.4042 0.537909 27.2789 0.550249 27.1713 0.599661C27.1642 0.603191 26.5501 0.871435 25.3289 0.874964C24.3654 0.878494 20.0789 0.327896 19.4666 0.244955C18.5278 0.117897 17.9543 0.444363 17.536 0.682598V0.68083ZM14.3225 20.4013C13.6395 21.1178 12.7907 22.0072 12.6143 22.1272C12.549 22.1625 12.4837 22.1996 12.4149 22.2384C12.0531 22.4449 11.7107 22.639 11.1072 22.5578C11.0578 22.5508 6.09547 21.8961 4.9343 21.8996C3.86136 21.9031 3.16254 22.0796 2.82548 22.1925C2.53431 22.039 1.81961 21.5343 1.27785 20.0837C0.767852 18.0684 1.2602 16.9161 1.56902 16.4343C2.08608 16.6143 2.5696 16.5684 2.89078 16.4396C3.0196 16.3867 3.13077 16.3002 3.29665 16.1678C3.73077 15.8237 4.45784 15.2466 5.38077 15.4602C5.94195 15.589 7.64841 15.9825 9.57546 15.2167C10.4649 14.862 11.116 14.4773 11.5925 14.1967C12.4466 13.692 12.5154 13.7061 12.699 13.8543C12.7431 13.8896 12.8772 13.9973 12.8878 14.2884C12.9072 14.7649 12.5825 15.4161 12.1043 15.8608C11.739 16.2014 11.056 16.5296 10.3943 16.8473C9.53309 17.262 8.72134 17.6519 8.29781 18.1814C7.41017 19.2931 7.40135 20.2637 7.39782 20.3696C7.40135 20.659 7.63782 20.8884 7.92723 20.8884C8.21664 20.8884 8.45311 20.6519 8.45664 20.3625C8.45664 20.3449 8.46369 20.0925 8.61016 19.7167C8.95251 20.0819 9.49076 20.5813 10.1243 20.899C10.3855 21.0296 10.7031 20.9237 10.8354 20.6625C10.8743 20.5866 10.8919 20.5055 10.8919 20.426C10.8919 20.2319 10.7843 20.0449 10.599 19.9513C10.2054 19.7555 9.849 19.4555 9.57723 19.189H15.489C15.1201 19.5666 14.7195 19.9866 14.3243 20.4013H14.3225ZM10.1825 18.1302C10.4031 18.0172 10.6308 17.9061 10.8513 17.8002C11.5837 17.4472 12.339 17.0837 12.8225 16.6355C13.5319 15.9755 13.9784 15.0437 13.9431 14.2496C13.9237 13.7414 13.7225 13.3196 13.359 13.0284C12.5649 12.3914 11.8625 12.8061 11.0507 13.2861C10.5813 13.5649 9.99545 13.9108 9.18192 14.2337C8.27133 14.5955 7.42958 14.6572 6.72194 14.6043V5.42611H20.4972C20.206 5.58669 19.8778 5.74552 19.5654 5.89552C18.8525 6.23787 18.1148 6.59259 17.6437 7.032C16.9501 7.67612 16.5231 8.59375 16.5495 9.36493C16.5672 9.86257 16.7666 10.2773 17.1231 10.5649C17.9048 11.1914 18.5895 10.7855 19.3854 10.3161C19.8425 10.0461 20.4125 9.70903 21.203 9.39491C22.1189 9.03138 22.9607 8.98197 23.663 9.04197V18.1319H10.1807L10.1825 18.1302ZM19.3237 1.2932C19.3713 1.30026 24.1889 1.93555 25.3324 1.93378C26.3718 1.93025 27.0513 1.76085 27.383 1.64967C27.6654 1.79967 28.3536 2.29201 28.876 3.68965C29.3666 5.63258 28.8989 6.74787 28.6007 7.21905C28.0977 7.04611 27.6283 7.09375 27.316 7.21905C27.1871 7.27022 27.0742 7.36023 26.9171 7.48552C26.4971 7.81905 25.793 8.37669 24.9019 8.17199C24.3548 8.04669 22.6925 7.66375 20.8131 8.41022C19.9466 8.75433 19.3113 9.13022 18.8489 9.40374C18.0266 9.88904 17.9613 9.87669 17.7884 9.73904C17.746 9.70551 17.6207 9.60491 17.6101 9.32785C17.6013 8.86727 17.9048 8.23904 18.3672 7.80845C18.7219 7.48022 19.3854 7.16082 20.026 6.852C20.8642 6.44788 21.6566 6.06671 22.0713 5.54965C22.9377 4.46436 22.9519 3.50966 22.9501 3.41084C22.9466 3.12143 22.7101 2.892 22.4207 2.892C22.1313 2.892 21.8948 3.12847 21.8913 3.41788C21.8913 3.43376 21.8825 3.67024 21.7501 4.01965C21.4148 3.66494 20.8978 3.18848 20.2889 2.88319C20.0278 2.7526 19.7101 2.85848 19.5795 3.11966C19.4489 3.38083 19.5548 3.69848 19.816 3.82907C20.1001 3.97201 20.3648 4.16964 20.5907 4.36729H14.9525C15.0566 4.27023 15.1607 4.17142 15.2684 4.07083C16.2054 3.19201 17.6207 1.8632 17.866 1.71143C17.9295 1.6779 17.9931 1.64085 18.0601 1.60379C18.4095 1.40438 18.7413 1.21555 19.3237 1.29496V1.2932Z" fill="white"/>
</svg>
