<svg width="54" height="54" viewBox="0 0 54 54" fill="none" xmlns="http://www.w3.org/2000/svg">
<circle cx="27" cy="27" r="27" fill="#3F3F3F"/>
<g opacity="0.5">
<path opacity="0.5" d="M29.5067 25.1597C28.9676 25.1597 28.5364 24.7563 28.5364 24.2521V18.4369C28.5364 17.9327 28.9676 17.5293 29.5067 17.5293H35.8319C36.371 17.5293 36.8023 17.9327 36.8023 18.4369V24.2521C36.8023 24.7563 36.371 25.1597 35.8319 25.1597H29.5067Z" stroke="#F3F3F3" stroke-linecap="round" stroke-linejoin="round"/>
<path opacity="0.5" d="M32.2382 28.5881L28.5365 32.3193C28.3208 32.5209 28.3208 32.8907 28.5365 33.0924L32.2382 36.8236C32.4897 37.0589 32.8851 37.0589 33.1366 36.8236L36.8383 33.0924C37.054 32.8907 37.054 32.5209 36.8383 32.3193L33.1366 28.5881C32.8851 28.3528 32.4538 28.3528 32.2382 28.5881Z" stroke="#F3F3F3" stroke-linecap="round" stroke-linejoin="round"/>
<path opacity="0.5" d="M21.1689 36.4879C23.4713 36.4879 25.3378 34.7422 25.3378 32.5887C25.3378 30.4352 23.4713 28.6895 21.1689 28.6895C18.8665 28.6895 17 30.4352 17 32.5887C17 34.7422 18.8665 36.4879 21.1689 36.4879Z" stroke="#F3F3F3" stroke-linecap="round" stroke-linejoin="round"/>
<path opacity="0.5" d="M17.5031 18.8404L20.7017 17.1261C20.9892 16.958 21.3486 16.958 21.672 17.1261L24.8706 18.8404C25.1581 19.0084 25.3378 19.311 25.3378 19.6135V23.0421C25.3378 23.3447 25.1581 23.6472 24.8706 23.8153L21.672 25.5296C21.3845 25.6977 21.0251 25.6977 20.7017 25.5296L17.5031 23.8153C17.2156 23.6472 17 23.3447 17 23.0421V19.6135C17 19.2774 17.2156 18.9748 17.5031 18.8404Z" stroke="#F3F3F3" stroke-linecap="round" stroke-linejoin="round"/>
</g>
</svg>
