<svg width="54" height="54" viewBox="0 0 54 54" fill="none" xmlns="http://www.w3.org/2000/svg">
<circle cx="27" cy="27" r="27" fill="#3F3F3F"/>
<g opacity="0.5">
<path d="M35.9618 27.79C35.8045 29.4922 35.1657 31.1144 34.1201 32.4668C33.0744 33.8192 31.6653 34.8458 30.0575 35.4265C28.4497 36.0073 26.7098 36.1181 25.0413 35.7461C23.3728 35.3741 21.8448 34.5345 20.636 33.3258C19.4273 32.117 18.5878 30.589 18.2157 28.9205C17.8437 27.252 17.9545 25.5121 18.5353 23.9043C19.116 22.2965 20.1426 20.8874 21.495 19.8418C22.8474 18.7961 24.4696 18.1573 26.1718 18C25.1752 19.3483 24.6957 21.0094 24.8203 22.6814C24.945 24.3534 25.6657 25.9251 26.8512 27.1106C28.0368 28.2961 29.6084 29.0168 31.2804 29.1415C32.9524 29.2662 34.6135 28.7866 35.9618 27.79Z" stroke="#F3F3F3" stroke-linecap="round" stroke-linejoin="round"/>
</g>
</svg>
