<svg width="36" height="35" viewBox="0 0 36 35" fill="none" xmlns="http://www.w3.org/2000/svg">
    <rect x=".472" width="34.736" height="34.736" rx="5.558" fill="#222326"/>
    <g clip-path="url(#t1yp6008za)">
        <path d="M17.493 29.179c6.715 0 12.158-5.443 12.158-12.158S24.207 4.863 17.493 4.863c-6.715 0-12.158 5.443-12.158 12.158s5.443 12.158 12.158 12.158z" fill="#333539"/>
        <path fill-rule="evenodd" clip-rule="evenodd" d="M17.493 9.112a7.909 7.909 0 1 0 0 15.818 7.909 7.909 0 0 0 0-15.818zm-9.379 7.909a9.379 9.379 0 1 1 18.758 0 9.379 9.379 0 0 1-18.758 0z" fill="#fff"/>
        <path d="M19.14 20.137c-.06-.059-.06-.176-.118-.294 0-.118-.059-.235-.059-.353-.118.118-.235.177-.353.294-.117.118-.294.177-.412.235-.176.06-.294.118-.529.177-.176.059-.411.059-.588.059-.352 0-.646-.06-.94-.177a3.168 3.168 0 0 1-.765-.411c-.235-.177-.353-.412-.47-.647a1.877 1.877 0 0 1-.177-.823c0-.706.294-1.294.824-1.647.529-.412 1.352-.588 2.41-.588h1v-.412c0-.352-.118-.588-.294-.764-.235-.176-.53-.294-.94-.294-.354 0-.589.059-.765.235a.755.755 0 0 0-.235.588h-1.764c0-.294.058-.588.176-.823.117-.235.294-.47.588-.706.235-.176.53-.352.882-.47a3.909 3.909 0 0 1 1.235-.176c.411 0 .764.058 1.117.176s.647.235.94.47c.236.177.471.47.589.765.117.294.235.647.235 1.058v2.94c0 .353 0 .647.059.882.059.236.117.47.176.588v.118H19.14zm-1.706-1.235c.176 0 .353 0 .47-.059.177-.058.294-.117.412-.176.118-.059.235-.118.294-.235l.235-.235V17.02h-.882c-.294 0-.529 0-.705.06-.177.058-.353.117-.47.235-.118.117-.236.176-.295.352-.058.118-.058.294-.058.412 0 .235.058.412.235.588.176.176.47.235.764.235z" fill="#fff"/>
    </g>
    <defs>
        <clipPath id="t1yp6008za">
            <path fill="#fff" transform="translate(5.335 4.863)" d="M0 0h24.316v24.316H0z"/>
        </clipPath>
    </defs>
</svg>
