<svg width="50" height="50" viewBox="0 0 50 50" fill="none" xmlns="http://www.w3.org/2000/svg">
    <rect width="50" height="50" rx="8" fill="#C90607"/>
    <path d="M35.294 13.004h-21.61v19.64h21.61v-19.64z" fill="#fff"/>
    <path fill-rule="evenodd" clip-rule="evenodd" d="M41.988 24.5c0 9.652-7.83 17.477-17.488 17.477-9.659 0-17.488-7.825-17.488-17.477 0-9.652 7.83-17.477 17.488-17.477 9.659 0 17.488 7.825 17.488 17.477zm-22.444 6.955H16.15c-.713 0-1.065 0-1.28-.137a.862.862 0 0 1-.39-.675c-.014-.253.162-.562.515-1.18l8.38-14.762c.357-.627.537-.94.765-1.056a.865.865 0 0 1 .782 0c.227.116.408.43.764 1.056l1.723 3.005.009.016c.385.672.58 1.013.666 1.371.094.391.094.803 0 1.194-.086.36-.28.704-.67 1.387L23.01 29.45l-.011.02c-.388.678-.584 1.021-.856 1.28-.297.284-.653.49-1.044.606-.357.099-.757.099-1.556.099zm8.571 0h4.864c.717 0 1.078 0 1.293-.142a.86.86 0 0 0 .39-.678c.013-.245-.16-.542-.497-1.125l-.035-.06-2.436-4.165-.028-.047c-.342-.578-.515-.87-.737-.983a.856.856 0 0 0-.777 0c-.224.116-.404.42-.76 1.035l-2.428 4.164-.008.014c-.356.613-.533.92-.52 1.171a.87.87 0 0 0 .39.678c.211.138.572.138 1.29.138z" fill="#E84142"/>
</svg>
