<svg width="50" height="50" viewBox="0 0 50 50" fill="none" xmlns="http://www.w3.org/2000/svg">
    <rect width="50" height="50" rx="8" fill="#D69C0D"/>
    <path d="M25.2 42.7c9.665 0 17.5-7.835 17.5-17.5S34.865 7.7 25.2 7.7 7.7 15.535 7.7 25.2s7.835 17.5 17.5 17.5z" fill="#F3BA2C"/>
    <path d="m32.71 29.906-.003.001-7.506 7.508-7.506-7.505-.003-.004 2.764-2.756 4.745 4.743 4.746-4.746 2.762 2.76zM32.707 20.493l-2.76 2.76-4.746-4.746-4.745 4.743-2.76-2.76 7.505-7.505 7.506 7.508zM34.654 22.442l-2.76 2.76 2.76 2.76 2.761-2.76-2.76-2.76zM15.746 22.44l-2.76 2.76 2.76 2.761 2.76-2.76-2.76-2.76z" fill="#fff"/>
    <path d="M28 25.2h.002L25.2 22.397l-2.07 2.07-.238.237-.49.49-.004.004.004.004 2.799 2.799 2.801-2.801.001-.002h-.003z" fill="#fff"/>
</svg>
