<svg width="50" height="50" viewBox="0 0 50 50" fill="none" xmlns="http://www.w3.org/2000/svg">
    <rect width="50" height="50" rx="8" fill="#D77A0B"/>
    <path d="M41.475 28.735c-2.336 9.374-11.833 15.08-21.21 12.74S5.185 29.643 7.525 20.268 19.357 5.185 28.732 7.525s15.083 11.833 12.743 21.21z" fill="#F7931A"/>
    <path d="M32.218 22.007c.347-2.329-1.426-3.58-3.85-4.416l.787-3.154-1.92-.479-.768 3.072a76.037 76.037 0 0 0-1.538-.362l.77-3.092-1.919-.478-.785 3.153-3.873-.96-.511 2.052s1.425.326 1.395.346c.777.195.918.71.895 1.117l-2.155 8.642c-.095.236-.337.59-.88.455.019.028-1.396-.35-1.396-.35l-.953 2.201 3.867.977-.795 3.19 1.918.48.788-3.158c.525.143 1.032.274 1.53.397l-.785 3.142 1.92.479.796-3.185c3.274.62 5.737.37 6.772-2.59.835-2.384-.041-3.76-1.764-4.657 1.255-.29 2.2-1.116 2.452-2.82l.002-.002zm-4.39 6.153c-.595 2.384-4.608 1.096-5.91.772l1.054-4.227c1.302.325 5.475.968 4.856 3.455zm.596-6.187c-.541 2.17-3.883 1.068-4.968.797l.955-3.835c1.085.271 4.576.775 4.012 3.038" fill="#fff"/>
</svg>
