<svg width="14" height="15" viewBox="0 0 14 15" fill="none" xmlns="http://www.w3.org/2000/svg">
<path d="M4.10436 2.43408L3.73753 2.70424C2.71427 2.06744 1.0172 1.4152 2.41502 3.90065C3.43905 5.72147 5.65159 7.98832 7.40311 9.60029C7.61324 9.79368 7.81674 9.97765 8.01075 10.1503C8.40701 10.5029 8.76371 10.8083 9.05657 11.0502C11.103 12.5746 13.6032 13.8804 11.8501 10.7003L12.1001 10.3503C13.6929 11.8844 15.9008 16.4533 9.83849 12.5457C9.53838 12.3522 8.60687 11.7103 7.40311 10.6883C7.20401 10.5193 6.99746 10.3398 6.7851 10.1503C4.93608 8.50015 2.64567 6.08519 0.986312 3.10948C-0.581989 0.297047 1.17937 0.0316166 4.10436 2.43408Z" fill="url(#paint0_linear_3431_7157)"/>
<defs>
<linearGradient id="paint0_linear_3431_7157" x1="-5.02061" y1="-1.90148" x2="28.1" y2="-3.34287" gradientUnits="userSpaceOnUse">
<stop stop-color="#FF8811"/>
<stop offset="1" stop-color="#FF1267"/>
</linearGradient>
</defs>
</svg>
