<svg width="36" height="35" viewBox="0 0 36 35" fill="none" xmlns="http://www.w3.org/2000/svg">
    <rect x=".315" width="34.736" height="34.736" rx="5.558" fill="#B3015F"/>
    <g clip-path="url(#om60itcl0a)">
        <path d="M17.335 29.179c6.715 0 12.158-5.443 12.158-12.158S24.05 4.863 17.336 4.863c-6.715 0-12.158 5.443-12.158 12.158s5.443 12.158 12.157 12.158z" fill="#E6007A"/>
        <path d="M17.75 10.454c-2.79.011-5.048 2.232-5.059 4.976 0 .55.09 1.095.267 1.616a.726.726 0 0 0 .89.436.705.705 0 0 0 .43-.872 3.234 3.234 0 0 1-.197-1.268c.06-1.982 1.743-3.54 3.757-3.48 2.014.06 3.598 1.714 3.537 3.696-.057 1.855-1.542 3.361-3.425 3.474 0 0-.71.043-1.064.085-.13.018-.259.044-.386.076a.047.047 0 0 1-.067 0 .045.045 0 0 1 0-.056l.11-.59.667-2.95a.682.682 0 0 0-.533-.81.693.693 0 0 0-.823.525s-1.586 7.22-1.586 7.286a.655.655 0 0 0 .493.8h.037c.356.09.72-.12.812-.47l.004-.019a.16.16 0 0 1 0-.032c.02-.085.22-1.046.22-1.046a1.787 1.787 0 0 1 1.49-1.393c.152-.023.796-.066.796-.066 2.778-.272 4.806-2.709 4.528-5.441-.253-2.493-2.352-4.412-4.898-4.477z" fill="#FAFAFA"/>
        <path d="M18.056 21.926a.843.843 0 0 0-.997.643l-.002.013a.826.826 0 0 0 .643.983h.024a.827.827 0 0 0 .997-.6l.002-.01v-.045a.86.86 0 0 0-.667-.984z" fill="#fff"/>
    </g>
    <defs>
        <clipPath id="om60itcl0a">
            <path fill="#fff" transform="translate(5.178 4.863)" d="M0 0h24.316v24.316H0z"/>
        </clipPath>
    </defs>
</svg>
