<svg width="35" height="35" viewBox="0 0 35 35" fill="none" xmlns="http://www.w3.org/2000/svg">
    <rect width="34.736" height="34.736" rx="5.558" fill="#6329C4"/>
    <g clip-path="url(#hbonn5nd0a)">
        <path d="M17.02 29.179c6.715 0 12.159-5.443 12.159-12.158S23.735 4.863 17.02 4.863c-6.715 0-12.158 5.443-12.158 12.158s5.443 12.158 12.158 12.158z" fill="#8247E5"/>
        <path d="M21.045 14.42c-.292-.17-.67-.17-.991 0l-2.275 1.3-1.546.848-2.274 1.301c-.292.17-.67.17-.992 0l-1.808-1.018c-.291-.17-.495-.48-.495-.82v-2.007c0-.34.175-.65.495-.82l1.78-.99c.291-.17.67-.17.99 0l1.78.99c.291.17.495.48.495.82v1.3l1.546-.876v-1.3c0-.34-.175-.651-.496-.82L13.96 10.46a1.03 1.03 0 0 0-.992 0l-3.353 1.866a.912.912 0 0 0-.496.82v3.76c0 .34.175.651.496.82l3.353 1.867c.292.17.671.17.992 0l2.274-1.273 1.546-.876 2.275-1.273c.291-.17.67-.17.991 0l1.779.99c.291.17.496.48.496.82v2.008c0 .339-.175.65-.496.82l-1.779 1.017c-.292.17-.67.17-.991 0l-1.78-.99c-.29-.169-.495-.48-.495-.82v-1.3l-1.546.877v1.3c0 .34.175.65.496.82l3.354 1.866c.291.17.67.17.991 0l3.354-1.866c.291-.17.495-.48.495-.82v-3.76c0-.34-.175-.65-.495-.82l-3.383-1.894z" fill="#fff"/>
    </g>
    <defs>
        <clipPath id="hbonn5nd0a">
            <path fill="#fff" transform="translate(4.863 4.863)" d="M0 0h24.316v24.316H0z"/>
        </clipPath>
    </defs>
</svg>
