<svg width="50" height="50" viewBox="0 0 50 50" fill="none" xmlns="http://www.w3.org/2000/svg">
    <rect width="50" height="50" rx="8" fill="#059E90"/>
    <path d="M24.5 42C34.165 42 42 34.165 42 24.5S34.165 7 24.5 7 7 14.835 7 24.5 14.835 42 24.5 42z" fill="#4DB6AC"/>
    <path d="M34.77 24.308c0-.994-3.495-1.825-8.16-2.028v-2.126h5.934V16H16.225v4.154h5.934v2.126C17.494 22.483 14 23.314 14 24.308s3.494 1.824 8.16 2.027V34h4.45v-7.665c4.665-.203 8.16-1.033 8.16-2.027zm-10.385 1.384c-4.916 0-8.902-.697-8.902-1.557 0-.726 2.84-1.334 6.676-1.507v2.317c.712.041 1.454.055 2.226.055.771 0 1.513-.014 2.225-.055v-2.317c3.837.173 6.676.781 6.676 1.507 0 .86-3.986 1.557-8.901 1.557z" fill="#fff"/>
</svg>
