<svg width="36" height="35" viewBox="0 0 36 35" fill="none" xmlns="http://www.w3.org/2000/svg">
    <rect x=".787" width="34.736" height="34.736" rx="5.558" fill="#004896"/>
    <g clip-path="url(#ngq5jg3j3a)">
        <path d="M18.155 29.178c6.545 0 11.81-5.265 11.81-11.81 0-6.545-5.265-11.81-11.81-11.81a11.782 11.782 0 0 0-11.81 11.81c0 6.545 5.265 11.81 11.81 11.81z" fill="#2775CA"/>
        <path d="M21.403 19.238c0-1.723-1.034-2.313-3.1-2.559-1.477-.197-1.772-.59-1.772-1.28 0-.689.492-1.131 1.476-1.131.886 0 1.378.295 1.624 1.033a.37.37 0 0 0 .345.246h.787a.336.336 0 0 0 .345-.344v-.05a2.459 2.459 0 0 0-2.215-2.017v-1.181c0-.197-.148-.345-.394-.394h-.738c-.197 0-.344.148-.393.394v1.132c-1.477.197-2.412 1.18-2.412 2.41 0 1.625.984 2.265 3.051 2.51 1.378.247 1.821.542 1.821 1.33 0 .787-.689 1.328-1.624 1.328-1.28 0-1.722-.541-1.87-1.28-.049-.196-.197-.295-.344-.295h-.837a.336.336 0 0 0-.344.345v.049c.196 1.23.984 2.116 2.608 2.362v1.181c0 .197.147.345.393.394h.739c.196 0 .344-.148.393-.394v-1.181c1.477-.246 2.46-1.28 2.46-2.608z" fill="#fff"/>
        <path d="M15.645 24.405c-3.838-1.378-5.807-5.659-4.38-9.448.739-2.067 2.363-3.642 4.38-4.38.197-.098.295-.246.295-.492v-.689c0-.197-.098-.344-.295-.394-.05 0-.147 0-.197.05-4.675 1.476-7.234 6.446-5.757 11.121a8.853 8.853 0 0 0 5.757 5.758c.197.098.394 0 .443-.197.05-.05.05-.099.05-.197v-.689c0-.148-.148-.344-.296-.443zm5.216-15.353c-.196-.099-.393 0-.442.196-.05.05-.05.099-.05.197v.69c0 .196.148.393.296.491 3.838 1.378 5.806 5.66 4.38 9.449-.739 2.067-2.363 3.641-4.38 4.38-.197.098-.296.245-.296.492v.689c0 .196.099.344.296.393.049 0 .147 0 .196-.049 4.675-1.476 7.234-6.447 5.758-11.122a8.925 8.925 0 0 0-5.758-5.806z" fill="#fff"/>
    </g>
    <defs>
        <clipPath id="ngq5jg3j3a">
            <path fill="#fff" transform="translate(6.344 5.558)" d="M0 0h23.621v23.621H0z"/>
        </clipPath>
    </defs>
</svg>
