<svg width="32" height="32" viewBox="0 0 32 32" fill="none" xmlns="http://www.w3.org/2000/svg">
<path d="M25.3706 21.8185L25.3676 21.82L15.8567 31.3324L6.34738 21.8231L6.34277 21.8185L9.84467 18.3258L15.8567 24.3363L21.8703 18.3228L25.3706 21.8185Z" fill="#D69C0D"/>
<path d="M25.3688 9.89227L21.8715 13.3896L15.858 7.376L9.84593 13.3865L6.34863 9.8892L15.858 0.379883L25.3688 9.89227Z" fill="#D69C0D"/>
<path d="M27.8351 12.3621L24.3374 15.8599L27.8351 19.3576L31.3328 15.8599L27.8351 12.3621Z" fill="#D69C0D"/>
<path d="M3.87809 12.3597L0.380371 15.8574L3.87809 19.3551L7.37581 15.8574L3.87809 12.3597Z" fill="#D69C0D"/>
<path d="M19.4056 15.8556H19.4071L15.8576 12.3062L13.2354 14.9284L12.9345 15.2293L12.3127 15.851L12.3081 15.8556L12.3127 15.8603L15.8591 19.4067L19.4086 15.8572L19.4102 15.8556H19.4056Z" fill="#D69C0D"/>
</svg>
