<svg width="23" height="30" viewBox="0 0 23 30" fill="none" xmlns="http://www.w3.org/2000/svg">
    <path d="M22.606 12.06c.471-3.153-1.929-4.847-5.211-5.978l1.066-4.27-2.6-.647-1.039 4.157a102.3 102.3 0 0 0-2.081-.49L13.783.649 11.186 0l-1.063 4.268L4.88 2.97l-.692 2.776s1.93.442 1.888.47c1.053.262 1.244.959 1.212 1.511L4.37 19.424c-.129.32-.455.8-1.191.616.026.038-1.89-.474-1.89-.474L0 22.546l5.235 1.322-1.076 4.32 2.596.647 1.066-4.273c.71.192 1.398.37 2.071.537L8.83 29.352l2.6.648 1.076-4.311c4.433.838 7.766.5 9.167-3.506 1.13-3.227-.055-5.09-2.388-6.304 1.699-.393 2.978-1.51 3.32-3.818l.001-.002zm-5.94 8.328c-.806 3.227-6.239 1.483-8.002 1.045l1.428-5.722c1.762.44 7.41 1.311 6.573 4.677zm.806-8.374c-.733 2.937-5.257 1.445-6.725 1.079l1.292-5.191c1.469.366 6.195 1.049 5.43 4.112" fill="#FFD39D"/>
</svg>
