<svg width="35" height="30" viewBox="0 0 35 30" fill="none" xmlns="http://www.w3.org/2000/svg">
<path d="M25.816 9.16914C25.1929 8.81306 24.3917 8.81306 23.6795 9.16914L18.6944 12.1068L15.3116 13.9763L10.4154 16.9139C9.79228 17.27 8.9911 17.27 8.27893 16.9139L4.45104 14.5994C3.82789 14.2433 3.38279 13.5312 3.38279 12.73V8.27893C3.38279 7.56677 3.73887 6.8546 4.45104 6.4095L8.27893 4.18398C8.90208 3.82789 9.70326 3.82789 10.4154 4.18398L14.2433 6.49852C14.8665 6.8546 15.3116 7.56677 15.3116 8.36795V11.3056L18.6944 9.34718V6.32047C18.6944 5.60831 18.3383 4.89614 17.6261 4.45104L10.5045 0.267062C9.88131 -0.0890208 9.08012 -0.0890208 8.36795 0.267062L1.06825 4.54006C0.356083 4.89614 0 5.60831 0 6.32047V14.6884C0 15.4006 0.356083 16.1128 1.06825 16.5579L8.27893 20.7418C8.90208 21.0979 9.70326 21.0979 10.4154 20.7418L15.3116 17.8932L18.6944 15.9347L23.5905 13.0861C24.2136 12.73 25.0148 12.73 25.727 13.0861L29.5549 15.3116C30.178 15.6677 30.6231 16.3798 30.6231 17.181V21.632C30.6231 22.3442 30.2671 23.0564 29.5549 23.5015L25.816 25.727C25.1929 26.0831 24.3917 26.0831 23.6795 25.727L19.8516 23.5015C19.2285 23.1454 18.7834 22.4332 18.7834 21.632V18.7834L15.4006 20.7418V23.6795C15.4006 24.3917 15.7567 25.1039 16.4688 25.549L23.6795 29.7329C24.3027 30.089 25.1039 30.089 25.816 29.7329L33.0267 25.549C33.6498 25.1929 34.095 24.4807 34.095 23.6795V15.2226C34.095 14.5104 33.7389 13.7982 33.0267 13.3531L25.816 9.16914Z" fill="#B78BFF"/>
</svg>
