<svg width="150" height="36" viewBox="0 0 150 36" fill="none" xmlns="http://www.w3.org/2000/svg">
<path d="M19.2965 32.1918C27.8523 32.1918 34.7882 25.2882 34.7882 16.7722C34.7882 8.25615 27.8523 1.35254 19.2965 1.35254C10.7407 1.35254 3.80481 8.25615 3.80481 16.7722C3.80481 25.2882 10.7407 32.1918 19.2965 32.1918Z" fill="url(#paint0_linear_3506_6419)"/>
<path d="M37.6404 4.25783C40.4093 -1.80359 34.2931 -1.00783 28.2655 4.2139C28.4013 4.34916 29.0808 4.8902 29.4885 5.16072C36.5206 0.831125 34.1773 5.80604 32.8817 8.14141C31.5864 10.4768 19.8483 24.8826 10.5954 30.3667C3.193 34.754 5.41701 29.5667 7.33809 26.5318L6.38685 25.3144L4.54127 27.9525C2.24124 31.5913 -0.666817 38.1549 6.10106 35.2999C18.4736 29.6844 32.8817 14.6752 37.6404 4.25783Z" fill="url(#paint1_linear_3506_6419)"/>
<g filter="url(#filter0_i_3506_6419)">
<path d="M17.3528 25.2926L19.0325 23.8047C19.6036 24.3278 20.1567 24.8255 20.684 25.2926L19.0325 26.748C18.4914 26.2908 17.93 25.8052 17.3528 25.2926Z" fill="url(#paint2_linear_3506_6419)"/>
</g>
<path d="M10.0675 4.41973L9.07047 5.15057C6.28941 3.42789 1.67705 1.66346 5.4761 8.38709C8.25925 13.3128 14.2726 19.4451 19.0329 23.8058C19.604 24.3289 20.1571 24.8266 20.6844 25.2936C21.7614 26.2475 22.7308 27.0736 23.5268 27.728C29.0888 31.8518 35.8839 35.3843 31.1193 26.7815L31.7987 25.8347C36.1277 29.9847 42.1284 42.3445 25.6519 31.7737C24.8363 31.2502 22.3046 29.5137 19.0329 26.749C18.4918 26.2918 17.9304 25.8063 17.3533 25.2936C12.3279 20.8297 6.10297 14.2967 1.59311 6.24682C-2.66929 -1.36138 2.1178 -2.07942 10.0675 4.41973Z" fill="url(#paint3_linear_3506_6419)"/>
<path d="M85.5415 17.5696C85.5415 20.2545 84.8317 22.3275 83.4122 23.7884C82.0124 25.2493 80.1 25.9797 77.675 25.9797C76.1766 25.9797 74.8359 25.654 73.653 25.0025C72.4898 24.351 71.573 23.4034 70.9027 22.1596C70.2324 20.8962 69.8972 19.3661 69.8972 17.5696C69.8972 14.8847 70.5971 12.8217 71.9969 11.3805C73.3967 9.93933 75.319 9.21874 77.7637 9.21874C79.2818 9.21874 80.6224 9.54448 81.7857 10.196C82.9489 10.8475 83.8656 11.7951 84.536 13.0388C85.2063 14.2628 85.5415 15.7731 85.5415 17.5696ZM74.3923 17.5696C74.3923 19.1687 74.6486 20.3829 75.1612 21.212C75.6936 22.0215 76.5512 22.4262 77.7341 22.4262C78.8973 22.4262 79.7352 22.0215 80.2478 21.212C80.7802 20.3829 81.0463 19.1687 81.0463 17.5696C81.0463 15.9705 80.7802 14.7761 80.2478 13.9864C79.7352 13.177 78.8875 12.7723 77.7045 12.7723C76.5413 12.7723 75.6936 13.177 75.1612 13.9864C74.6486 14.7761 74.3923 15.9705 74.3923 17.5696ZM77.7045 31.9023C77.0342 31.9023 76.4625 31.7444 75.9893 31.4285C75.5358 31.1127 75.3091 30.55 75.3091 29.7406C75.3091 28.9114 75.5358 28.3389 75.9893 28.023C76.4625 27.7269 77.0342 27.5788 77.7045 27.5788C78.3551 27.5788 78.917 27.7269 79.3902 28.023C79.8634 28.3389 80.1 28.9114 80.1 29.7406C80.1 30.55 79.8634 31.1127 79.3902 31.4285C78.917 31.7444 78.3551 31.9023 77.7045 31.9023ZM80.3366 3C80.6126 3.43433 80.9675 3.92788 81.4012 4.48065C81.8547 5.01369 82.318 5.53685 82.7911 6.05014C83.2643 6.56344 83.6783 6.99776 84.0332 7.35312V7.73809H81.1055C80.5929 7.42222 80.031 7.05699 79.4198 6.64241C78.8086 6.20808 78.2467 5.7244 77.7341 5.19137C77.2215 5.7244 76.6695 6.19821 76.078 6.61279C75.4865 7.02738 74.9345 7.40247 74.4219 7.73809H71.4941V7.35312C71.8687 6.97802 72.2828 6.5437 72.7362 6.05014C73.2094 5.53685 73.6629 5.01369 74.0966 4.48065C74.5501 3.92788 74.9148 3.43433 75.1908 3H80.3366Z" fill="#FF751F"/>
<path d="M57.2159 5.54672H50V26.2166H57.2159C63.8107 26.2166 68.0989 22.1596 68.0989 15.9113C68.0989 9.63332 63.8107 5.54672 57.2159 5.54672ZM54.1403 22.6927V9.04106H57.068C61.4153 9.04106 63.8699 11.6174 63.8699 15.9113C63.8699 20.2052 61.4153 22.6927 57.068 22.6927H54.1403Z" fill="white"/>
<path d="M90.4248 7.85654C91.8739 7.85654 92.9386 6.79047 92.9386 5.42827C92.9386 4.06607 91.8739 3 90.4248 3C88.9166 3 87.852 4.06607 87.852 5.42827C87.852 6.79047 88.9166 7.85654 90.4248 7.85654ZM88.3251 9.811V28.941C88.3251 30.0367 87.8815 30.5105 86.6099 30.5105H85.427V34.0345H87.2605C90.4248 34.0345 92.4654 32.7019 92.4654 28.9114V9.811H88.3251Z" fill="white"/>
<path d="M95.9645 26.2166H100.105V9.811H95.9645V26.2166ZM98.0642 7.85654C99.5133 7.85654 100.608 6.79047 100.608 5.42827C100.608 4.06607 99.5133 3 98.0642 3C96.5856 3 95.5209 4.06607 95.5209 5.42827C95.5209 6.79047 96.5856 7.85654 98.0642 7.85654Z" fill="white"/>
<path d="M126.523 26.2166H130.663V16.5924C130.663 12.0616 127.884 9.5741 123.95 9.5741C121.555 9.5741 119.396 10.8475 118.331 12.7131C117.208 10.6698 115.108 9.5741 112.565 9.5741C110.524 9.5741 108.779 10.4329 107.744 11.7951V9.811H103.604V26.2166H107.744V17.155C107.744 14.5491 109.193 13.1869 111.441 13.1869C113.629 13.1869 115.078 14.5491 115.078 17.155V26.2166H119.219V17.155C119.219 14.5491 120.668 13.1869 122.886 13.1869C125.074 13.1869 126.523 14.5491 126.523 17.155V26.2166Z" fill="white"/>
<path d="M132.936 17.9546C132.936 23.0777 136.248 26.4832 140.389 26.4832C142.991 26.4832 144.854 25.2394 145.83 23.818V26.2166H150V9.811H145.83V12.1504C144.854 10.7882 143.05 9.54448 140.418 9.54448C136.248 9.54448 132.936 12.8315 132.936 17.9546ZM145.83 18.0138C145.83 21.1232 143.76 22.8407 141.483 22.8407C139.265 22.8407 137.165 21.064 137.165 17.9546C137.165 14.8452 139.265 13.1869 141.483 13.1869C143.76 13.1869 145.83 14.9044 145.83 18.0138Z" fill="white"/>
<defs>
<filter id="filter0_i_3506_6419" x="16.8444" y="23.8047" width="3.83961" height="3.45179" filterUnits="userSpaceOnUse" color-interpolation-filters="sRGB">
<feFlood flood-opacity="0" result="BackgroundImageFix"/>
<feBlend mode="normal" in="SourceGraphic" in2="BackgroundImageFix" result="shape"/>
<feColorMatrix in="SourceAlpha" type="matrix" values="0 0 0 0 0 0 0 0 0 0 0 0 0 0 0 0 0 0 127 0" result="hardAlpha"/>
<feOffset dx="-0.508433" dy="0.508433"/>
<feGaussianBlur stdDeviation="0.254216"/>
<feComposite in2="hardAlpha" operator="arithmetic" k2="-1" k3="1"/>
<feColorMatrix type="matrix" values="0 0 0 0 0.0999942 0 0 0 0 0.0802951 0 0 0 0 0.154167 0 0 0 0.16 0"/>
<feBlend mode="normal" in2="shape" result="effect1_innerShadow_3506_6419"/>
</filter>
<linearGradient id="paint0_linear_3506_6419" x1="34.7882" y1="13.7965" x2="3.82599" y2="22.5282" gradientUnits="userSpaceOnUse">
<stop stop-color="#8D57DE"/>
<stop offset="1" stop-color="#D6D6FC"/>
</linearGradient>
<linearGradient id="paint1_linear_3506_6419" x1="-12.7886" y1="-7.32002" x2="76.9727" y2="-11.2275" gradientUnits="userSpaceOnUse">
<stop stop-color="#FF8811"/>
<stop offset="1" stop-color="#FF1267"/>
</linearGradient>
<linearGradient id="paint2_linear_3506_6419" x1="14.8629" y1="23.0072" x2="30.0359" y2="21.9796" gradientUnits="userSpaceOnUse">
<stop stop-color="#FF8811"/>
<stop offset="1" stop-color="#FF1267"/>
</linearGradient>
<linearGradient id="paint3_linear_3506_6419" x1="-14.7328" y1="-7.30883" x2="75.2823" y2="-11.2445" gradientUnits="userSpaceOnUse">
<stop stop-color="#FF8811"/>
<stop offset="1" stop-color="#FF1267"/>
</linearGradient>
</defs>
</svg>
