<svg width="87" height="27" viewBox="0 0 87 27" fill="none" xmlns="http://www.w3.org/2000/svg">
<path d="M6.27782 2.21565H0V20.1985H6.27782C12.0153 20.1985 15.746 16.6689 15.746 11.2328C15.746 5.77099 12.0153 2.21565 6.27782 2.21565ZM3.60203 17.1326V5.25572H6.14917C9.9313 5.25572 12.0668 7.49714 12.0668 11.2328C12.0668 14.9685 9.9313 17.1326 6.14917 17.1326H3.60203Z" fill="white"/>
<path d="M35.1696 4.22519C36.4303 4.22519 37.3566 3.29771 37.3566 2.1126C37.3566 0.927481 36.4303 0 35.1696 0C33.8574 0 32.9312 0.927481 32.9312 2.1126C32.9312 3.29771 33.8574 4.22519 35.1696 4.22519ZM33.3429 5.92557V22.5687C33.3429 23.5219 32.9569 23.9342 31.8506 23.9342H30.8214V27H32.4166C35.1696 27 36.9449 25.8406 36.9449 22.5429V5.92557H33.3429Z" fill="white"/>
<path d="M39.9891 20.1985H43.5912V5.92557H39.9891V20.1985ZM41.8159 4.22519C43.0766 4.22519 44.0285 3.29771 44.0285 2.1126C44.0285 0.927481 43.0766 0 41.8159 0C40.5294 0 39.6032 0.927481 39.6032 2.1126C39.6032 3.29771 40.5294 4.22519 41.8159 4.22519Z" fill="white"/>
<path d="M66.5752 20.1985H70.1772V11.8254C70.1772 7.88359 67.7587 5.71947 64.3368 5.71947C62.2528 5.71947 60.3746 6.82729 59.4483 8.45038C58.4706 6.67271 56.6439 5.71947 54.4312 5.71947C52.6559 5.71947 51.1379 6.4666 50.2374 7.65172V5.92557H46.6354V20.1985H50.2374V12.3149C50.2374 10.0477 51.4981 8.8626 53.4535 8.8626C55.3574 8.8626 56.6182 10.0477 56.6182 12.3149V20.1985H60.2202V12.3149C60.2202 10.0477 61.4809 8.8626 63.4105 8.8626C65.3145 8.8626 66.5752 10.0477 66.5752 12.3149V20.1985Z" fill="white"/>
<path d="M72.1545 13.0105C72.1545 17.4676 75.0361 20.4303 78.6382 20.4303C80.9023 20.4303 82.5232 19.3483 83.3722 18.1116V20.1985H87V5.92557H83.3722V7.96088C82.5232 6.77576 80.9537 5.6937 78.6639 5.6937C75.0361 5.6937 72.1545 8.55343 72.1545 13.0105ZM83.3722 13.062C83.3722 15.7672 81.5712 17.2615 79.5901 17.2615C77.6605 17.2615 75.8337 15.7156 75.8337 13.0105C75.8337 10.3053 77.6605 8.8626 79.5901 8.8626C81.5712 8.8626 83.3722 10.3569 83.3722 13.062Z" fill="white"/>
</svg>
