<svg width="20" height="22" viewBox="0 0 20 22" fill="none" xmlns="http://www.w3.org/2000/svg">
    <path d="M19.717 15.214a.428.428 0 0 0-.25-.319l-8.926-3.692a.381.381 0 0 0-.427.097.46.46 0 0 0-.097.46l3.252 9.713c.047.14.156.244.29.276a.387.387 0 0 0 .373-.115l1.514-1.606 1.464 1.55a.382.382 0 0 0 .566 0l2.081-2.208a.458.458 0 0 0 0-.623l-1.452-1.54 1.502-1.594a.456.456 0 0 0 .112-.4h-.002zm-2.474 1.684a.458.458 0 0 0 0 .622l1.453 1.54-1.506 1.598-1.464-1.551a.388.388 0 0 0-.283-.126.388.388 0 0 0-.283.126l-1.347 1.43-2.737-8.177 7.513 3.107-1.347 1.43z" fill="#fff"/>
    <path d="M9.46 13.485c-.794-.313-1.329-1.136-1.329-2.052 0-1.203.906-2.182 2.02-2.182.84 0 1.6.571 1.893 1.421.078.226.31.342.52.258.208-.085.314-.335.238-.562a3.089 3.089 0 0 0-.388-.762l.769-.831a.462.462 0 0 0 0-.617.383.383 0 0 0-.571 0l-.77.832a2.689 2.689 0 0 0-1.69-.611c-.62 0-1.218.23-1.69.611l-.77-.832a.383.383 0 0 0-.57 0 .462.462 0 0 0 0 .617l.77.832a3.196 3.196 0 0 0-.566 1.826c0 .686.209 1.31.566 1.828l-.77.832a.462.462 0 0 0 0 .617.384.384 0 0 0 .57 0l.77-.83c.217.177.46.323.725.426a.384.384 0 0 0 .139.026c.165 0 .32-.11.38-.288.076-.227-.033-.477-.242-.56l-.004.001z" fill="#fff"/>
    <path d="M3.689 7.065c.484-.076.93-.284 1.303-.59l.752.813a.384.384 0 0 0 .57 0 .462.462 0 0 0 .001-.617l-.758-.82c.276-.404.462-.883.525-1.404h8.139c.068.517.257.991.534 1.39l-.77.832a.462.462 0 0 0 0 .617.384.384 0 0 0 .57 0l.77-.832a2.672 2.672 0 0 0 1.69.61c1.56 0 2.828-1.37 2.828-3.055S18.574.953 17.015.953c-1.421 0-2.598 1.141-2.794 2.62H6.074C5.864 2.11 4.696.984 3.284.984 1.723.985.455 2.355.455 4.041c0 1.537 1.056 2.809 2.424 3.021v8.769c-1.368.212-2.424 1.484-2.424 3.021 0 1.685 1.268 3.056 2.827 3.056 1.56 0 2.828-1.37 2.828-3.056 0-.685-.213-1.317-.566-1.826l.77-.833a.462.462 0 0 0 0-.617.383.383 0 0 0-.57 0l-.77.833a2.71 2.71 0 0 0-1.286-.578V7.062v.003zm13.328-5.236c1.113 0 2.02.98 2.02 2.183 0 1.203-.907 2.183-2.02 2.183-1.114 0-2.02-.98-2.02-2.183 0-1.203.906-2.183 2.02-2.183zM1.265 4.044c0-1.203.906-2.183 2.02-2.183 1.113 0 2.02.98 2.02 2.183 0 1.203-.907 2.183-2.02 2.183-1.114 0-2.02-.98-2.02-2.183zm2.02 16.994c-1.114 0-2.02-.98-2.02-2.183 0-1.204.906-2.183 2.02-2.183 1.113 0 2.02.98 2.02 2.183 0 1.203-.907 2.183-2.02 2.183z" fill="#fff"/>
</svg>
